HIERARCHY
ROOT Hips
{
	OFFSET 0.000000 0.000000 0.000000 
	CHANNELS 6 Xposition Yposition Zposition Zrotation Yrotation Xrotation
	JOINT LeftUpLeg
	{
		OFFSET 1.363060 -1.794630 0.839290 
		CHANNELS 3 Zrotation Yrotation Xrotation
		JOINT LeftLeg
		{
			OFFSET 2.448110 -6.726130 0.000000 
			CHANNELS 3 Zrotation Yrotation Xrotation
			JOINT LeftFoot
			{
				OFFSET 2.562200 -7.039590 0.000000 
				CHANNELS 3 Zrotation Yrotation Xrotation
				JOINT LeftToeBase
				{
					OFFSET 0.157640 -0.433110 2.322550 
					CHANNELS 3 Zrotation Yrotation Xrotation
					End Site
					{
						OFFSET 0.000000 0.000000 0.000000 
					}
				}
			}
		}
	}
	JOINT RightUpLeg
	{
		OFFSET -1.305520 -1.794630 0.839290 
		CHANNELS 3 Zrotation Yrotation Xrotation
		JOINT RightLeg
		{
			OFFSET -2.542530 -6.985550 0.000000 
			CHANNELS 3 Zrotation Yrotation Xrotation
			JOINT RightFoot
			{
				OFFSET -2.568260 -7.056230 0.000000 
				CHANNELS 3 Zrotation Yrotation Xrotation
				JOINT RightToeBase
				{
					OFFSET -0.164730 -0.452590 2.363150 
					CHANNELS 3 Zrotation Yrotation Xrotation
					End Site
					{
						OFFSET 0.000000 0.000000 0.000000 
					}
				}
			}
		}
	}
	JOINT Spine
	{
		OFFSET 0.028270 2.035590 -0.193380 
		CHANNELS 3 Zrotation Yrotation Xrotation
		JOINT Spine1
		{
			OFFSET 0.056720 2.048850 -0.042750 
			CHANNELS 3 Zrotation Yrotation Xrotation
			JOINT Neck1
			{
				OFFSET -0.054170 1.746240 0.172020 
				CHANNELS 3 Zrotation Yrotation Xrotation
				JOINT Head
				{
					OFFSET 0.104070 1.761360 -0.123970 
					CHANNELS 3 Zrotation Yrotation Xrotation
					End Site
					{
						OFFSET 0.000000 0.000000 0.000000 
					}
				}
			}
			JOINT LeftArm
			{
				OFFSET 3.362410 1.200890 -0.311210 
				CHANNELS 3 Zrotation Yrotation Xrotation
				JOINT LeftForeArm
				{
					OFFSET 4.983000 -0.000000 -0.000000 
					CHANNELS 3 Zrotation Yrotation Xrotation
					JOINT LeftHand
					{
						OFFSET 3.483560 -0.000000 -0.000000 
						CHANNELS 3 Zrotation Yrotation Xrotation
						JOINT LeftHandIndex1
						{
							OFFSET 0.715260 -0.000000 -0.000000 
							CHANNELS 3 Zrotation Yrotation Xrotation
							End Site
							{
								OFFSET 0.000000 0.000000 0.000000 
							}
						}
					}
				}
			}
			JOINT RightArm
			{
				OFFSET -3.136600 1.374050 -0.404650 
				CHANNELS 3 Zrotation Yrotation Xrotation
				JOINT RightForeArm
				{
					OFFSET -5.241900 -0.000000 -0.000000 
					CHANNELS 3 Zrotation Yrotation Xrotation
					JOINT RightHand
					{
						OFFSET -3.444170 -0.000000 -0.000000 
						CHANNELS 3 Zrotation Yrotation Xrotation
						JOINT RightHandIndex1
						{
							OFFSET -0.622530 -0.000000 -0.000000 
							CHANNELS 3 Zrotation Yrotation Xrotation
							End Site
							{
								OFFSET 0.000000 0.000000 0.000000 
							}
						}
					}
				}
			}
		}
	}
}
MOTION
Frames: 9
Frame Time: 0.041667
-0.576759 18.309570 5.561443 -2.148675 -4.488462 0.150445 -13.021110 -9.421221 -2.612098 0.664724 6.727946 22.266593 -1.315327 10.692189 -18.534710 7.968400 -16.096000 -52.448700 2.975351 1.889945 -1.797333 0.051747 0.653817 1.403893 0.291638 -0.978678 5.847219 0.000000 0.000000 0.000000 -3.162162 2.007320 20.073619 -2.118468 1.405169 -13.795028 6.460823 -5.270303 37.256040 1.124100 -1.333000 11.496800 -91.126651 9.813911 29.731657 24.315607 -33.320109 -6.398960 0.736989 0.220177 4.649410 -7.125000 0.000000 0.000000 97.885130 -12.772873 13.011187 -33.112154 41.217313 -10.238895 0.715890 -3.346482 19.801000 7.125000 0.000000 0.000000 
-0.575680 18.309374 5.561443 -2.178215 -4.495387 0.154131 -13.000627 -9.421076 -2.618651 0.668541 6.738849 22.295339 -1.314953 10.698191 -18.553276 7.964700 -16.093200 -52.435400 2.976993 1.889580 -1.799170 0.051650 0.652788 1.403666 0.291337 -0.979644 5.846813 0.000000 0.000000 0.000000 -3.131354 1.991006 19.992907 -2.149986 1.392439 -13.798031 6.544866 -5.298177 37.289528 1.146300 -1.334300 11.502900 -91.129480 9.846459 29.696973 24.313409 -33.317805 -6.398804 0.737341 0.219705 4.686167 -7.125000 0.000000 0.000000 97.891331 -12.798530 13.031024 -33.108962 41.209956 -10.236469 0.723549 -3.348710 19.767507 7.125000 0.000000 0.000000 
-0.575484 18.308982 5.560854 -2.200113 -4.507432 0.154144 -12.982630 -9.406761 -2.622350 0.670435 6.742376 22.305743 -1.312613 10.689745 -18.554975 7.968800 -16.096200 -52.450200 2.978179 1.889284 -1.799997 0.051542 0.652211 1.403474 0.291158 -0.980249 5.846693 0.000000 0.000000 0.000000 -3.088556 1.974997 19.964384 -2.160882 1.384532 -13.802069 6.519288 -5.288123 37.249617 1.138300 -1.334100 11.483700 -91.144001 9.854439 29.649233 24.316679 -33.320468 -6.399959 0.736723 0.219099 4.683608 -7.125000 0.000000 0.000000 97.879258 -12.809873 13.072213 -33.107847 41.208576 -10.234862 0.751443 -3.356033 19.675150 7.125000 0.000000 0.000000 
-0.575386 18.308982 5.560364 -2.209083 -4.508139 0.151170 -12.978502 -9.392445 -2.625685 0.671680 6.741546 22.305994 -1.313822 10.681778 -18.522261 7.976000 -16.101600 -52.476200 2.979146 1.889087 -1.800076 0.051394 0.652012 1.403323 0.291078 -0.980556 5.846830 0.000000 0.000000 0.000000 -3.022058 1.961423 19.979916 -2.168068 1.381143 -13.803388 6.477849 -5.280378 37.233707 1.127700 -1.337500 11.477400 -91.151876 9.879130 29.680612 24.363838 -33.368536 -6.420955 0.735483 0.222160 4.601723 -7.125000 0.000000 0.000000 97.855775 -12.806994 13.091275 -33.108408 41.208570 -10.235565 0.759193 -3.357863 19.596720 7.125000 0.000000 0.000000 
-0.575582 18.309472 5.560266 -2.163395 -4.508200 0.149418 -13.029624 -9.392918 -2.621080 0.671641 6.739504 22.303560 -1.313424 10.678281 -18.513918 7.976200 -16.101700 -52.477000 2.979869 1.888547 -1.800807 0.051431 0.651311 1.402962 0.290828 -0.981303 5.846596 0.000000 0.000000 0.000000 -3.019261 1.951190 19.967072 -2.123591 1.385533 -13.802151 6.458073 -5.267956 37.292556 1.126700 -1.333500 11.493600 -91.161425 9.910804 29.716152 24.395359 -33.397542 -6.435475 0.735281 0.225280 4.556713 -7.125000 0.000000 0.000000 97.844074 -12.828223 13.059810 -33.119165 41.209403 -10.234788 0.742549 -3.350459 19.669478 7.125000 0.000000 0.000000 
-0.575680 18.309570 5.560168 -2.127169 -4.506120 0.146595 -13.059674 -9.389559 -2.613175 0.670597 6.738267 22.297788 -1.311003 10.670763 -18.515472 7.978500 -16.103500 -52.485400 2.979647 1.888142 -1.802049 0.051676 0.650521 1.402746 0.290579 -0.981944 5.845986 0.000000 0.000000 0.000000 -3.114702 1.947320 19.893013 -2.068340 1.386196 -13.809844 6.378590 -5.242557 37.322422 1.103100 -1.329300 11.492200 -91.165320 9.914192 29.681378 24.361266 -33.359065 -6.420883 0.736504 0.224207 4.567101 -7.125000 0.000000 0.000000 97.859143 -12.871119 13.023515 -33.138530 41.223450 -10.245006 0.730033 -3.346544 19.776719 7.125000 0.000000 0.000000 
-0.574699 18.308884 5.559972 -2.152177 -4.498189 0.127216 -13.032604 -9.392683 -2.593673 0.669582 6.736534 22.291285 -1.310564 10.670062 -18.519827 7.969700 -16.096900 -52.453300 2.978586 1.888705 -1.801072 0.051683 0.651344 1.403116 0.290855 -0.981080 5.846242 0.000000 0.000000 0.000000 -3.139950 1.947619 19.914220 -2.090434 1.379295 -13.828005 6.327725 -5.256457 37.309969 1.082800 -1.342200 11.490000 -91.161451 9.899939 29.685765 24.346397 -33.348906 -6.416068 0.737422 0.224012 4.554518 -7.125000 0.000000 0.000000 97.869502 -12.868572 13.004804 -33.128530 41.221153 -10.246815 0.725696 -3.348425 19.810591 7.125000 0.000000 0.000000 
-0.574209 18.308491 5.560168 -2.195800 -4.497184 0.110261 -12.999341 -9.400425 -2.576923 0.669684 6.735181 22.291352 -1.310032 10.670570 -18.529646 7.955300 -16.086300 -52.401400 2.979155 1.889079 -1.799913 0.051383 0.652071 1.403297 0.291086 -0.980531 5.846893 0.000000 0.000000 0.000000 -3.029160 1.935756 19.990722 -2.145965 1.371344 -13.837038 6.348145 -5.283235 37.307281 1.088700 -1.354800 11.498700 -91.161949 9.905386 29.731109 24.383967 -33.393015 -6.434002 0.736806 0.225696 4.489992 -7.125000 0.000000 0.000000 97.857945 -12.847947 12.981821 -33.096470 41.189856 -10.224653 0.728375 -3.348453 19.847453 7.125000 0.000000 0.000000 
-0.574699 18.308393 5.560266 -2.221667 -4.499025 0.111224 -12.976948 -9.406309 -2.575297 0.670354 6.735065 22.292398 -1.309579 10.666073 -18.523483 7.949800 -16.082200 -52.381600 2.980143 1.888955 -1.800047 0.051220 0.651908 1.403189 0.291037 -0.980788 5.847036 0.000000 0.000000 0.000000 -2.963004 1.921067 20.005206 -2.169030 1.365143 -13.826945 6.456959 -5.290849 37.295338 1.123900 -1.345700 11.496900 -91.170108 9.903545 29.698685 24.390264 -33.400519 -6.437440 0.737085 0.223094 4.487643 -7.125000 0.000000 0.000000 97.859039 -12.856465 12.968242 -33.080755 41.169174 -10.208931 0.732678 -3.347980 19.911097 7.125000 0.000000 0.000000 
